PathFileType	4	(X/Y/Z)	C:\Users\86182\Documents\cortex\Trimmed_M4_L8.trc
DataRate	CameraRate	NumFrames	NumMarkers	Units	OrigDataRate	OrigDataStartFrame	OrigNumFrames
100.00	100.00	       70	2	mm	100.00	541	       901
Frame#	Time	gripper			box			
		X1	Y1	Z1	X2	Y2	Z2	

541	5.400	276.21420	151.24017	292.46967	277.02130	149.39714	156.95029	
542	5.410	276.21072	151.24115	292.47052	277.01956	149.39603	156.94695	
543	5.420	276.20804	151.24191	292.47116	277.01813	149.39505	156.94350	
544	5.430	276.20602	151.24248	292.47162	277.01773	149.39471	156.94116	
545	5.440	276.20419	151.24298	292.47205	277.01877	149.39536	156.94087	
546	5.450	276.20221	151.24355	292.47253	277.02127	149.39713	156.94302	
547	5.460	276.20013	151.24413	292.47302	277.02515	149.39995	156.94751	
548	5.470	276.19821	151.24466	292.47348	277.03000	149.40346	156.95348	
549	5.480	276.19687	151.24506	292.47382	277.03491	149.40695	156.95946	
550	5.490	276.19623	151.24522	292.47394	277.03864	149.40967	156.96385	
551	5.500	276.19623	151.24522	292.47394	277.03986	149.41098	156.96558	
552	5.510	276.19650	151.24515	292.47388	277.03824	149.41068	156.96452	
553	5.520	276.19681	151.24506	292.47382	277.03467	149.40901	156.96141	
554	5.530	276.19690	151.24504	292.47379	277.03061	149.40674	156.95740	
555	5.540	276.19653	151.24515	292.47388	277.02740	149.40465	156.95374	
556	5.550	276.19571	151.24538	292.47406	277.02594	149.40343	156.95151	
557	5.560	276.19464	151.24567	292.47430	277.02652	149.40350	156.95137	
558	5.570	276.19354	151.24597	292.47458	277.02896	149.40486	156.95329	
559	5.580	276.19257	151.24625	292.47482	277.03259	149.40704	156.95653	
560	5.590	276.19159	151.24652	292.47504	277.03619	149.40923	156.95981	
561	5.600	276.19049	151.24683	292.47531	277.03824	149.41043	156.96176	
562	5.610	276.18927	151.24718	292.47559	277.03772	149.41002	156.96141	
563	5.620	276.18808	151.24751	292.47589	277.03476	149.40813	156.95868	
564	5.630	276.18704	151.24780	292.47614	277.03052	149.40530	156.95425	
565	5.640	276.18625	151.24802	292.47635	277.02615	149.40215	156.94911	
566	5.650	276.18582	151.24815	292.47644	277.02246	149.39915	156.94420	
567	5.660	276.18585	151.24814	292.47644	277.01984	149.39673	156.94031	
568	5.670	276.18649	151.24796	292.47626	277.01840	149.39510	156.93806	
569	5.680	276.18793	151.24756	292.47595	277.01804	149.39441	156.93779	
570	5.690	276.19016	151.24692	292.47540	277.01862	149.39461	156.93942	
571	5.700	276.19327	151.24606	292.47467	277.01978	149.39540	156.94235	
572	5.710	276.19696	151.24501	292.47379	277.02106	149.39633	156.94543	
573	5.720	276.20084	151.24393	292.47287	277.02194	149.39694	156.94731	
574	5.730	276.20422	151.24298	292.47205	277.02209	149.39688	156.94714	
575	5.740	276.20651	151.24234	292.47150	277.02158	149.39615	156.94501	
576	5.750	276.20721	151.24214	292.47134	277.02066	149.39505	156.94176	
577	5.760	276.20633	151.24239	292.47156	277.01956	149.39401	156.93848	
578	5.770	276.20435	151.24295	292.47205	277.01855	149.39334	156.93594	
579	5.780	276.20187	151.24364	292.47263	277.01776	149.39311	156.93452	
580	5.790	276.19943	151.24432	292.47321	277.01724	149.39326	156.93410	
581	5.800	276.19739	151.24490	292.47369	277.01697	149.39360	156.93430	
582	5.810	276.19589	151.24532	292.47403	277.01682	149.39391	156.93465	
583	5.820	276.19479	151.24562	292.47427	277.01675	149.39406	156.93481	
584	5.830	276.19397	151.24585	292.47449	277.01672	149.39392	156.93456	
585	5.840	276.19339	151.24602	292.47461	277.01663	149.39349	156.93375	
586	5.850	276.19305	151.24611	292.47470	277.01654	149.39285	156.93254	
587	5.860	276.19302	151.24612	292.47470	277.01645	149.39221	156.93135	
588	5.870	276.19324	151.24606	292.47467	277.01642	149.39177	156.93056	
589	5.880	276.19360	151.24596	292.47455	277.01642	149.39166	156.93039	
590	5.890	276.19415	151.24580	292.47443	277.01654	149.39194	156.93100	
591	5.900	276.19492	151.24559	292.47427	277.01672	149.39264	156.93240	
592	5.910	276.19565	151.24539	292.47409	277.01694	149.39369	156.93448	
593	5.920	276.19589	151.24532	292.47403	277.01715	149.39491	156.93678	
594	5.930	276.19537	151.24547	292.47415	277.01721	149.39595	156.93860	
595	5.940	276.19412	151.24582	292.47446	277.01706	149.39644	156.93921	
596	5.950	276.19254	151.24626	292.47485	277.01660	149.39627	156.93835	
597	5.960	276.19086	151.24673	292.47522	277.01593	149.39558	156.93631	
598	5.970	276.18930	151.24718	292.47562	277.01517	149.39468	156.93382	
599	5.980	276.18802	151.24753	292.47589	277.01453	149.39389	156.93164	
600	5.990	276.18726	151.24774	292.47607	277.01422	149.39337	156.93037	
601	6.000	276.18710	151.24779	292.47614	277.01437	149.39320	156.93027	
602	6.010	276.18762	151.24763	292.47601	277.01486	149.39342	156.93129	
603	6.020	276.18878	151.24731	292.47571	277.01556	149.39403	156.93324	
604	6.030	276.19046	151.24684	292.47531	277.01630	149.39497	156.93578	
605	6.040	276.19247	151.24628	292.47485	277.01694	149.39598	156.93832	
606	6.050	276.19461	151.24568	292.47430	277.01740	149.39673	156.94017	
607	6.060	276.19684	151.24506	292.47382	277.01764	149.39690	156.94070	
608	6.070	276.19919	151.24438	292.47324	277.01761	149.39635	156.93973	
609	6.080	276.20169	151.24368	292.47266	277.01743	149.39529	156.93762	
610	6.090	276.20422	151.24298	292.47205	277.01718	149.39409	156.93518	
